/vscmnt/brussel_pixiu_data/_data_brussel/112/vsc11236/PredSimResults/SUBJ06mtu3D/worker7.mot
version=1
nRows=4
nColumns=50
inDegrees=yes
endheader
                time	         pelvis_tilt	         pelvis_list	     pelvis_rotation	           pelvis_tx	           pelvis_ty	           pelvis_tz	       hip_flexion_r	     hip_adduction_r	      hip_rotation_r	        knee_angle_r	       ankle_angle_r	         mtp_angle_r	       hip_flexion_l	     hip_adduction_l	      hip_rotation_l	        knee_angle_l	       ankle_angle_l	         mtp_angle_l	    lumbar_extension	      lumbar_bending	     lumbar_rotation	 ercspn_r/activation	 intobl_r/activation	 extobl_r/activation	    abd_r/activation	    add_r/activation	hamstrings_r/activation	bifemsh_r/activation	glut_max_r/activation	iliopsoas_r/activation	rect_fem_r/activation	  vasti_r/activation	gastroc_r/activation	 soleus_r/activation	tib_ant_r/activation	 ercspn_l/activation	 intobl_l/activation	 extobl_l/activation	    abd_l/activation	    add_l/activation	hamstrings_l/activation	bifemsh_l/activation	glut_max_l/activation	iliopsoas_l/activation	rect_fem_l/activation	  vasti_l/activation	gastroc_l/activation	 soleus_l/activation	tib_ant_l/activation	
          0.00000000	         -7.35587872	         -0.78430204	          3.81492054	          0.00000000	          0.93067115	         -0.00918196	         31.21957577	         -0.18297725	         -2.53797527	         -4.99559814	         -0.46758366	          0.23725854	        -10.94183457	          0.22345208	         -1.22413745	         -7.85058772	          5.68724879	         35.14906566	         -4.42455355	         -0.74977559	         -1.58346857	          0.15661345	          0.14199827	          0.00999999	          0.00999999	          0.23045024	          0.20127502	          0.24392608	          0.05350576	          0.17066639	          0.00999999	          0.00999999	          0.02109050	          0.01452256	          0.41134530	          0.11621833	          0.00999999	          0.00999999	          0.06424775	          0.00999999	          0.01000000	          0.15276688	          0.04397064	          0.51701669	          0.01205096	          0.00999999	          0.37962061	          0.29510543	          0.02109050	
          0.01230579	         -7.43270613	         -0.74838231	          3.87477236	          0.01656589	          0.92899082	         -0.00840406	         31.32311458	         -0.09237259	         -2.34103521	         -6.86035752	         -0.81890315	          0.20300387	        -11.13383294	          0.14404785	         -1.59575368	         -9.14262169	          4.84638228	         37.01404563	         -4.12660964	         -0.47164974	         -1.91719113	          0.12995926	          0.11783145	          0.00999999	          0.01590523	          0.19122969	          0.18631599	          0.20241207	          0.08928984	          0.14162051	          0.00999999	          0.00999999	          0.01750109	          0.01205095	          0.48729180	          0.10843742	          0.00999999	          0.00999999	          0.05331337	          0.01205095	          0.02581620	          0.12676734	          0.03648724	          0.50566840	          0.01000000	          0.01872941	          0.34959851	          0.27933390	          0.01750109	
          0.02461158	         -7.49301694	         -0.73067740	          3.90331803	          0.03339248	          0.92763215	         -0.00749911	         31.25148665	          0.00330647	         -2.21348605	         -8.43839464	         -1.28562657	          0.18829389	        -11.11006550	          0.02562690	         -1.98767938	        -10.85455139	          3.86304916	         38.93579773	         -3.82542405	         -0.17345944	         -2.23453139	          0.13971705	          0.09777760	          0.00999999	          0.06359622	          0.19977162	          0.16538949	          0.16796337	          0.11415127	          0.11751798	          0.00999999	          0.00999999	          0.01452256	          0.00999999	          0.57292665	          0.10711250	          0.00999999	          0.00999999	          0.04423992	          0.00999999	          0.02142256	          0.10519268	          0.03027744	          0.49012550	          0.00999999	          0.01750109	          0.30931775	          0.25888489	          0.01452256	
          0.03691737	         -7.53529869	         -0.71401008	          3.90317077	          0.05027849	          0.92668455	         -0.00647937	         31.08911958	          0.10278491	         -2.15354671	         -9.88308966	         -1.75396944	          0.15916267	        -10.80445473	         -0.11811838	         -2.40107387	        -13.07852907	          2.70706473	         40.86660334	         -3.54705362	          0.12556873	         -2.53053166	          0.15359289	          0.08113674	          0.00999999	          0.12127329	          0.25011533	          0.15041574	          0.13937752	          0.15822400	          0.09751749	          0.00999999	          0.00999999	          0.01205095	          0.00999999	          0.61703696	          0.14288967	          0.00999999	          0.00999999	          0.03671068	          0.03489572	          0.03012290	          0.08728984	          0.02512449	          0.45982350	          0.00999999	          0.01452256	          0.25667467	          0.23252402	          0.01205095	
